# xmcd
#
# Track frame offsets:
#	150
#	6040
#	19396
#	29272
#	43892
#	52989
#	64591
#	77468
#	89481
#	97915
#	109233
#	121657
#
# Disc length: 1697 seconds
#
# Revision: 0
# Processed by: cddbd v1.5PL3 Copyright (c) Steve Scherf et al.
# Submitted via: audiograbber 1.82.02
#
DISCID=8b069f0c
DTITLE=The Lusatian Grass - Live Recordings 2001
DYEAR=2001
DGENRE=Bluegrass
TTITLE0=Dog On Run
TTITLE1=I Was Blind
TTITLE2=You´re So Young And I Am Growing Old
TTITLE3=I Ain´t Gonna Swallow The Bait
TTITLE4=Wind Side (Of My House)
TTITLE5=Dear, Oh, Dear
TTITLE6=Halelujjah, Shout And Pray
TTITLE7=Sandy Banks
TTITLE8=It Looks Like Rain
TTITLE9=Just A Dream
TTITLE10=This Ole Mountain Road
TTITLE11=When Leaves Get Colored
EXTD=
EXTT0=
EXTT1=
EXTT2=
EXTT3=
EXTT4=
EXTT5=
EXTT6=
EXTT7=
EXTT8=
EXTT9=
EXTT10=
EXTT11=
PLAYORDER=
